<svg id="Layer_1" data-name="Layer 1" xmlns="http://www.w3.org/2000/svg" viewBox="0 0 92.52 100.51"><defs><style>.cls-1,.cls-2{fill:#28436d;}.cls-1{opacity:0.75;}.cls-3{fill:#fff;opacity:0.37;isolation:isolate;}</style></defs><title>sandbox email signature logo</title><path class="cls-1" d="M17.59,44.3v-.2a.91.91,0,0,1,.47-.68l16-8.51a.83.83,0,0,1,1.3.64v2.13a.86.86,0,0,1-.46.72L23.79,44.18l11.09,5.58a.85.85,0,0,1,.46.68v2.12a.83.83,0,0,1-1.3.65L18.06,45A.91.91,0,0,1,17.59,44.3Z"/><path class="cls-1" d="M51.51,50.44a.77.77,0,0,1,.47-.68l11-5.58L52,38.4a.78.78,0,0,1-.47-.72V35.55a.84.84,0,0,1,1.31-.64l16,8.51a.92.92,0,0,1,.46.68v.2a.92.92,0,0,1-.46.68l-16,8.23a.84.84,0,0,1-1.31-.65Z"/><path class="cls-2" d="M39,80.8,27.25,77.39a.77.77,0,0,1-.48-.42.93.93,0,0,1-.05-.68c1.42-4.69,4-12.7,5.11-13.68,1.3-1.15,4-.69,5.46-.32,2.27.58,5.14,1.84,5.75,3.51.53,1.47-1.64,9.63-3,14.36a.87.87,0,0,1-.41.54A.79.79,0,0,1,39,80.8Z"/><path class="cls-3" d="M38.74,78.73a.44.44,0,0,1-.18-.15c-.41-.62-.09-3,.93-7,1.26-4.92.3-5.36-2.56-6.65-.09,0-.3-.13-.26-.34a.27.27,0,0,1,.28-.22c.62-.06,4.12.67,4.66,2.62C42,68.36,39.32,77.53,39,78.57a.23.23,0,0,1-.22.17Zm.08-.22Z"/><path class="cls-2" d="M46.55,22.19a6.13,6.13,0,0,1-1.35-6l.55-1.88a.69.69,0,0,1,.82-.5l10.26,3a.69.69,0,0,1,.43.87l-.46,1.58C55.51,23.7,50.19,25.84,46.55,22.19ZM47.64,17a3.43,3.43,0,0,0,6.58,1.91Z"/><path class="cls-2" d="M40,60.52l-2.76-.8a.44.44,0,0,1-.31-.55l9.51-32.82a.44.44,0,0,1,.55-.3l2.77.8a.44.44,0,0,1,.3.55L40.56,60.22A.44.44,0,0,1,40,60.52Z"/></svg>
