<svg id="Carbonite_Logo" data-name="Carbonite Logo" xmlns="http://www.w3.org/2000/svg" xmlns:xlink="http://www.w3.org/1999/xlink" viewBox="0 0 2022.69 231.2"><defs><style>.cls-1{fill:none;}.cls-2{fill:#495252;}.cls-3{fill:#495151;}.cls-4{clip-path:url(#clip-path);}.cls-5{fill:url(#radial-gradient);}.cls-6{fill:url(#radial-gradient-2);}.cls-7{fill:url(#linear-gradient);}.cls-8{fill:url(#linear-gradient-2);}.cls-9{fill:url(#linear-gradient-3);}.cls-10{fill:#485151;}</style><clipPath id="clip-path"><path class="cls-1" d="M1869.17,9c-4.2,0-8.15.19-11.76.52-11.76.87-27,4.3-37.87,9.18-37.28,16.05-54.2,44.74-59.94,77.15-4.88,28.68.29,70.83,32.12,100.09,33,30.11,84.32,31.55,114.44,24.1,36.72-9.76,60.8-27.82,73.71-66,10.32-31,7.75-73.7-16.07-104.1-25.75-32.26-66.09-41-94.64-41h0"/></clipPath><radialGradient id="radial-gradient" cx="571.06" cy="2395.04" r="6.4" gradientTransform="translate(12131.66 64650.71) rotate(180) scale(17.96 26.95)" gradientUnits="userSpaceOnUse"><stop offset="0" stop-color="#94bc42"/><stop offset="0.46" stop-color="#93ba42"/><stop offset="0.68" stop-color="#8db241"/><stop offset="0.84" stop-color="#85a63f"/><stop offset="0.97" stop-color="#78943c"/><stop offset="1" stop-color="#758f3b"/></radialGradient><radialGradient id="radial-gradient-2" cx="3118.38" cy="1439.51" r="519.46" gradientTransform="matrix(0.27, 0, 0, -0.27, 1028.74, 603.18)" gradientUnits="userSpaceOnUse"><stop offset="0" stop-color="#fff"/><stop offset="0.03" stop-color="#fbfcf3"/><stop offset="0.21" stop-color="#dfe6a4"/><stop offset="0.3" stop-color="#d4de85"/><stop offset="0.53" stop-color="#aac657"/><stop offset="0.76" stop-color="#8eb43d" stop-opacity="0"/></radialGradient><linearGradient id="linear-gradient" x1="1871.82" y1="866.06" x2="1871.82" y2="949.65" gradientTransform="matrix(1, 0, 0, -1, 0, 941.56)" gradientUnits="userSpaceOnUse"><stop offset="0" stop-color="#93b93d"/><stop offset="0.36" stop-color="#b8d17f"/><stop offset="1" stop-color="#fff"/></linearGradient><linearGradient id="linear-gradient-2" x1="1871.82" y1="227.84" x2="1871.82" y2="4.73" gradientUnits="userSpaceOnUse"><stop offset="0" stop-color="#4f4e51"/><stop offset="1" stop-color="#fff"/></linearGradient><linearGradient id="linear-gradient-3" x1="1871.86" y1="216.99" x2="1871.86" y2="15.62" gradientUnits="userSpaceOnUse"><stop offset="0" stop-color="#dcdddd"/><stop offset="0.01" stop-color="#d7d8d9"/><stop offset="0.11" stop-color="#babbbc"/><stop offset="0.21" stop-color="#a2a3a4"/><stop offset="0.33" stop-color="#8f9192"/><stop offset="0.47" stop-color="#828486"/><stop offset="0.64" stop-color="#7a7c7e"/><stop offset="1" stop-color="#787a7c"/></linearGradient></defs><title>logo.carbonite</title><path class="cls-2" d="M520.5,3.78C542.71,3.78,577.85,5.32,597,34c11.11,17.28,14.81,45.64,6.78,65.37-6.16,15.1-14.79,24.67-32.06,32.07C582.79,141.61,587,153,593.5,166.89l26,60.12H550.1l-19.73-46.25c-13.88-32.68-11.1-33-28.67-33H488.13V227h-70V3.78Zm-32.37,98.36H498c16,0,29-1.23,35.46-10.49,4.31-5.86,5.86-17.26,2.46-24.35-7.4-16-23.13-17-37.92-17h-9.87Z"/><path class="cls-2" d="M719.43,3.78c21.89,0,63.52-.62,78.63,34.23,6.78,15.41,7.63,39.71-4.74,55.81a50.68,50.68,0,0,1-11.87,11.28c19.42,7.72,28.19,23,30.47,37.73,2.8,17.95,2,37.39-11.86,55.59-23.12,29.9-61.82,28.59-83.4,28.59H626.93V3.78ZM705.25,92c17.57,0,22.82-1.84,29.6-12.33,3.08-4.93,2.46-16.34-1.23-21-7.1-8.63-15.42-9.55-29-9.55h-7.71V92Zm-.31,87.57c11.41,0,32.37,1.86,40.7-9.86,4.63-6.49,4.32-16.35.93-22.51-7.71-13-28.37-10.8-40.09-10.8h-9.56v43.17Z"/><rect class="cls-2" x="1277.69" y="3.78" width="70.01" height="223.23"/><polygon class="cls-2" points="1553.7 3.78 1553.7 58.35 1490.49 58.35 1490.49 227.01 1420.81 227.01 1420.81 58.35 1357.3 58.35 1357.3 3.78 1553.7 3.78"/><polygon class="cls-2" points="1721.19 3.78 1721.19 57.43 1633.32 57.43 1633.32 88.58 1714.41 88.58 1714.41 140.37 1632.8 140.37 1632.8 173.15 1723.66 173.15 1723.66 227.01 1563.32 227.01 1563.32 3.78 1721.19 3.78"/><path class="cls-2" d="M1049.51,93.37c-5.94-34.85-23.46-65.68-62-82.94-11.29-5.25-27-8.95-39.2-9.87a210.41,210.41,0,0,0-29.85,0c-12.17.92-27.91,4.62-39.19,9.87-38.6,17.26-56.11,48.09-62.05,82.94a129.29,129.29,0,0,0-1.64,22.11,129.37,129.37,0,0,0,1.64,22.11c5.94,34.85,23.45,65.68,62.05,82.94,11.28,5.25,27,8.94,39.19,9.87a210.41,210.41,0,0,0,29.85,0c12.18-.93,27.91-4.62,39.2-9.87,38.59-17.26,56.11-48.09,62-82.94a131.43,131.43,0,0,0,1.64-22.11,131.35,131.35,0,0,0-1.64-22.11M973,157.84c-8.92,15.52-24.75,21.76-39.67,21.78s-30.75-6.26-39.67-21.78c-6-10.66-8.83-26.48-8.37-42.36-.46-15.88,2.33-31.71,8.37-42.36,8.92-15.52,24.75-21.76,39.67-21.78S964.09,57.6,973,73.12c6,10.65,8.82,26.48,8.36,42.36.46,15.88-2.32,31.7-8.36,42.36"/><path class="cls-2" d="M330.48,3.78H261.12L180.16,227h69.38l12.94-41.92h66.64L342.07,227h69.37Zm-56,136L297,72.84l21.28,66.92Z"/><path class="cls-3" d="M85.61,64.47C104,42.93,158.86,51.72,175,58.25V4.5C150,.11,114-2.21,87.5,2.94,52,9.84,20.46,31.49,7,69.71,3.24,80.45-.32,97.39,0,115.87-.32,134.35,3.17,151,7,161.74c14.18,40.12,38.85,60,80.48,66.77,26.58,4.58,62.46,2.83,87.5-1.56V173.14c-17,7.35-67,11.1-86.89-6.5-14.06-12.44-18-39.24-17.56-50.92-.41-11.67-.52-33,15.06-51.25"/><polygon class="cls-2" points="1204.22 3.78 1193.74 3.78 1193.74 115.58 1114.3 3.78 1058.68 3.78 1058.68 25.52 1058.68 227.01 1116.65 227.01 1128.06 227.01 1128.06 118.84 1205.65 227.01 1263.12 227.01 1263.12 205.27 1263.12 3.78 1204.22 3.78"/><g id="Dot"><g class="cls-4"><rect class="cls-5" x="1754.73" y="9.04" width="235.47" height="218.49"/></g><g class="cls-4"><path class="cls-6" d="M1763.35,129.76c38.81-31.5,121.49-38.41,171.68-21.69,62.19,19.91,77,49.21,68.34,83.75-7.66,28.66-45,74.66-74.07,106.15-28.67,30-52.62,35.2-72.36,30.46-22.11-5.39-40.5-21.75-68.85-56.48-8.47-10.15-19.29-24-26.7-34.88-17.19-25.87-45.59-69.43,2-107.31"/><path class="cls-7" d="M1938.67,42.21c1.06,16.5-29,37.86-66.85,39-37.8-1.14-67.9-22.57-66.85-39,1.3-17.89,28.78-33,66.85-32.9s65.59,15,66.85,32.9"/></g><path class="cls-8" d="M1797,189.78c-28.88-26.53-34.2-65.31-29.53-92.66,6.09-34.4,24.06-57.59,55.1-71,9.43-4.23,23.56-7.63,35.39-8.5,3.53-.32,7.26-.49,11.09-.49,17.53,0,61.29,3.69,88.5,37.79,22.71,29,23.73,69.38,14.7,96.49-11.21,33.13-30.9,50.65-67.78,60.45a133.58,133.58,0,0,1-31.43,3.57c-17.9,0-51.59-3.35-76-25.68m72-185c-4.37,0-8.47.19-12.22.53-12.22.9-28,4.48-39.33,9.55-38.72,16.67-56.3,46.46-62.25,80.12-5.06,29.79.3,73.57,33.36,104,23.59,21.54,56.21,28.94,84.45,28.94a146.49,146.49,0,0,0,34.41-3.92c38.13-10.13,63.16-28.9,76.55-68.52,10.71-32.17,8-76.54-16.69-108.12-26.72-33.44-68.58-42.55-98.23-42.55h0"/><path class="cls-9" d="M1798.1,188.64c-28.42-26.13-33.66-64.27-29.06-91.25,6-33.84,23.71-56.69,54.21-69.82,9.28-4.16,23.29-7.53,34.91-8.37,3.47-.32,7.16-.48,10.95-.48,17.31,0,60.49,3.62,87.29,37.18,22.35,28.54,23.36,68.3,14.45,95-11,32.56-30.35,49.78-66.68,59.43a131.6,131.6,0,0,1-31,3.52c-17.67,0-50.93-3.28-75-25.26M1858,16.11c-11.91.88-26.33,4.35-35.89,8.63-31.51,13.57-49.83,37.17-56,72.14-4.74,27.78.67,67.09,30,94,24.85,22.69,59,26.09,77.1,26.09a135.15,135.15,0,0,0,31.81-3.6c37.5-10,57.45-27.76,68.84-61.46,9.19-27.53,8.12-68.48-15-98-27.64-34.62-71.95-38.36-89.72-38.36-3.89,0-7.67.16-11.2.49"/></g><path class="cls-10" d="M2008.9,3.85c8.2,0,13.79,5.59,13.79,13.78s-5.59,13.79-13.79,13.79-13.71-5.59-13.71-13.79S2000.78,3.85,2008.9,3.85ZM2009,29c6.51,0,11-4.67,11-11.41s-4.44-11.41-11-11.41-11,4.67-11,11.41S2002.47,29,2009,29Zm-1.15-10.26H2006v6.13h-2.07V10.2h5.9a4.11,4.11,0,0,1,4.29,4.29,4,4,0,0,1-4,4.29l4.59,6.13h-2.3ZM2006,17h3.6a2.33,2.33,0,0,0,2.37-2.53,2.39,2.39,0,0,0-2.37-2.6H2006Z"/></svg>